<svg width="262" height="50" viewBox="0 0 262 50" fill="none" xmlns="http://www.w3.org/2000/svg">
<path d="M77.7734 26H75.2148V17.6602L70.7129 25.5801C70.6022 25.7819 70.446 25.9349 70.2441 26.0391C70.0488 26.1432 69.8372 26.1953 69.6094 26.1953C69.388 26.1953 69.1797 26.1432 68.9844 26.0391C68.7956 25.9349 68.6458 25.7819 68.5352 25.5801L64.0137 17.6602V26H61.4746V13.0801C61.4746 12.7871 61.5592 12.5267 61.7285 12.2988C61.9043 12.071 62.1322 11.918 62.4121 11.8398C62.5488 11.8073 62.6855 11.7975 62.8223 11.8105C62.959 11.8171 63.0892 11.8464 63.2129 11.8984C63.3431 11.944 63.4603 12.0124 63.5645 12.1035C63.6686 12.1882 63.7565 12.2923 63.8281 12.416L69.6094 22.4648L75.3906 12.416C75.5404 12.1686 75.7454 11.9928 76.0059 11.8887C76.2728 11.7845 76.5495 11.7682 76.8359 11.8398C77.1094 11.918 77.334 12.071 77.5098 12.2988C77.6855 12.5267 77.7734 12.7871 77.7734 13.0801V26ZM91.7285 18.9395C91.7285 19.291 91.6667 19.6719 91.543 20.082C91.4193 20.4857 91.2174 20.8633 90.9375 21.2148C90.6641 21.5599 90.3027 21.8496 89.8535 22.084C89.4108 22.3184 88.8704 22.4355 88.2324 22.4355H83.6523V20.0234H88.2324C88.5775 20.0234 88.8444 19.9193 89.0332 19.7109C89.222 19.4961 89.3164 19.2324 89.3164 18.9199C89.3164 18.5879 89.209 18.3275 88.9941 18.1387C88.7858 17.9499 88.5319 17.8555 88.2324 17.8555H83.6523C83.3073 17.8555 83.0404 17.9629 82.8516 18.1777C82.6628 18.3861 82.5684 18.6465 82.5684 18.959V22.5039C82.5684 22.8424 82.6725 23.1061 82.8809 23.2949C83.0957 23.4837 83.3594 23.5781 83.6719 23.5781H88.2324V26H83.6523C83.3008 26 82.9199 25.9382 82.5098 25.8145C82.1061 25.6908 81.7285 25.4922 81.377 25.2188C81.0319 24.9388 80.7422 24.5775 80.5078 24.1348C80.2734 23.6855 80.1562 23.1419 80.1562 22.5039V18.9395C80.1562 18.5879 80.2181 18.2103 80.3418 17.8066C80.4655 17.3965 80.6641 17.0189 80.9375 16.6738C81.2174 16.3223 81.5788 16.0293 82.0215 15.7949C82.4707 15.5605 83.0143 15.4434 83.6523 15.4434H88.2324C88.584 15.4434 88.9616 15.5052 89.3652 15.6289C89.7754 15.7526 90.153 15.9544 90.498 16.2344C90.8496 16.5078 91.1426 16.8691 91.377 17.3184C91.6113 17.7611 91.7285 18.3014 91.7285 18.9395ZM105.02 22.4355C105.02 22.8717 104.964 23.2656 104.854 23.6172C104.743 23.9622 104.596 24.2682 104.414 24.5352C104.232 24.7956 104.02 25.0202 103.779 25.209C103.538 25.3913 103.285 25.541 103.018 25.6582C102.757 25.7754 102.49 25.8633 102.217 25.9219C101.95 25.974 101.696 26 101.455 26H96.875C96.4388 26 96.0482 25.9447 95.7031 25.834C95.3581 25.7233 95.0521 25.5768 94.7852 25.3945C94.5247 25.2057 94.3001 24.9909 94.1113 24.75C93.929 24.5091 93.7793 24.2585 93.6621 23.998C93.5449 23.7311 93.457 23.4642 93.3984 23.1973C93.3464 22.9238 93.3203 22.6699 93.3203 22.4355V18.998C93.3203 18.347 93.4375 17.7969 93.6719 17.3477C93.9128 16.8919 94.209 16.5241 94.5605 16.2441C94.9186 15.9577 95.306 15.7526 95.7227 15.6289C96.1393 15.5052 96.5234 15.4434 96.875 15.4434H101.455V17.9824H96.8945C96.556 17.9824 96.2988 18.0703 96.123 18.2461C95.9473 18.4154 95.8594 18.666 95.8594 18.998V22.416C95.8594 22.7611 95.944 23.0215 96.1133 23.1973C96.2891 23.373 96.543 23.4609 96.875 23.4609H101.455C101.8 23.4609 102.057 23.373 102.227 23.1973C102.396 23.0215 102.48 22.7676 102.48 22.4355V10.9805H105.02V22.4355ZM110.02 13.2754H107.48V10.9805H110.02V13.2754ZM110.02 26H107.48V15.4434H110.02V26ZM123.359 22.5039C123.359 22.8555 123.298 23.2363 123.174 23.6465C123.05 24.0501 122.848 24.4277 122.568 24.7793C122.295 25.1243 121.934 25.4141 121.484 25.6484C121.042 25.8828 120.501 26 119.863 26H115.283C114.932 26 114.551 25.9382 114.141 25.8145C113.737 25.6908 113.359 25.4922 113.008 25.2188C112.663 24.9388 112.373 24.5775 112.139 24.1348C111.904 23.6855 111.787 23.1419 111.787 22.5039C111.787 22.1523 111.849 21.7715 111.973 21.3613C112.096 20.9512 112.295 20.5736 112.568 20.2285C112.848 19.877 113.21 19.584 113.652 19.3496C114.102 19.1152 114.645 18.998 115.283 18.998H119.863V21.4199H115.283C114.938 21.4199 114.671 21.5273 114.482 21.7422C114.294 21.9505 114.199 22.2109 114.199 22.5234C114.199 22.8555 114.307 23.1159 114.521 23.3047C114.743 23.487 115.003 23.5781 115.303 23.5781H119.863C120.208 23.5781 120.475 23.474 120.664 23.2656C120.853 23.0573 120.947 22.7969 120.947 22.4844V18.9395C120.947 18.6074 120.843 18.3438 120.635 18.1484C120.433 17.9531 120.176 17.8555 119.863 17.8555H114.287V15.4434H119.863C120.215 15.4434 120.592 15.5052 120.996 15.6289C121.406 15.7526 121.784 15.9544 122.129 16.2344C122.48 16.5078 122.773 16.8691 123.008 17.3184C123.242 17.7611 123.359 18.3014 123.359 18.9395V22.5039ZM144.854 26H135.693C135.459 26 135.205 25.974 134.932 25.9219C134.665 25.8633 134.398 25.7754 134.131 25.6582C133.87 25.541 133.62 25.3913 133.379 25.209C133.138 25.0202 132.923 24.7956 132.734 24.5352C132.552 24.2682 132.406 23.9622 132.295 23.6172C132.184 23.2656 132.129 22.8717 132.129 22.4355V15.5605C132.129 15.3262 132.155 15.0755 132.207 14.8086C132.266 14.5352 132.354 14.2682 132.471 14.0078C132.588 13.7409 132.741 13.487 132.93 13.2461C133.118 13.0052 133.343 12.7936 133.604 12.6113C133.87 12.4225 134.176 12.2728 134.521 12.1621C134.867 12.0514 135.257 11.9961 135.693 11.9961H144.854V14.5352H135.693C135.361 14.5352 135.107 14.623 134.932 14.7988C134.756 14.9746 134.668 15.235 134.668 15.5801V22.4355C134.668 22.7611 134.756 23.015 134.932 23.1973C135.114 23.373 135.368 23.4609 135.693 23.4609H144.854V26ZM151.611 26H150.479C150.114 26 149.723 25.9382 149.307 25.8145C148.896 25.6908 148.512 25.4889 148.154 25.209C147.796 24.9225 147.5 24.5547 147.266 24.1055C147.031 23.6497 146.914 23.0931 146.914 22.4355V10.9805H149.453V22.4355C149.453 22.748 149.551 22.9987 149.746 23.1875C149.941 23.3698 150.186 23.4609 150.479 23.4609H151.611V26ZM164.727 22.4355C164.727 22.8717 164.671 23.2656 164.561 23.6172C164.45 23.9622 164.303 24.2682 164.121 24.5352C163.939 24.7956 163.727 25.0202 163.486 25.209C163.245 25.3913 162.992 25.541 162.725 25.6582C162.464 25.7754 162.197 25.8633 161.924 25.9219C161.657 25.974 161.403 26 161.162 26H156.582C156.23 26 155.846 25.9382 155.43 25.8145C155.013 25.6908 154.626 25.4889 154.268 25.209C153.916 24.9225 153.62 24.5547 153.379 24.1055C153.145 23.6497 153.027 23.0931 153.027 22.4355V18.998C153.027 18.347 153.145 17.7969 153.379 17.3477C153.62 16.8919 153.916 16.5241 154.268 16.2441C154.626 15.9577 155.013 15.7526 155.43 15.6289C155.846 15.5052 156.23 15.4434 156.582 15.4434H161.162C161.813 15.4434 162.367 15.5605 162.822 15.7949C163.278 16.0293 163.646 16.3255 163.926 16.6836C164.206 17.0352 164.408 17.4193 164.531 17.8359C164.661 18.2526 164.727 18.64 164.727 18.998V22.4355ZM162.188 19.0176C162.188 18.666 162.1 18.4056 161.924 18.2363C161.748 18.0671 161.494 17.9824 161.162 17.9824H156.602C156.263 17.9824 156.006 18.0703 155.83 18.2461C155.654 18.4154 155.566 18.666 155.566 18.998V22.4355C155.566 22.7676 155.654 23.0215 155.83 23.1973C156.006 23.373 156.263 23.4609 156.602 23.4609H161.162C161.507 23.4609 161.764 23.373 161.934 23.1973C162.103 23.0215 162.188 22.7676 162.188 22.4355V19.0176ZM178.438 24.7207C178.438 24.903 178.405 25.0723 178.34 25.2285C178.275 25.3848 178.184 25.5215 178.066 25.6387C177.956 25.7493 177.822 25.8372 177.666 25.9023C177.516 25.9674 177.354 26 177.178 26H171.436C171.123 26 170.788 25.9642 170.43 25.8926C170.078 25.821 169.73 25.707 169.385 25.5508C169.04 25.388 168.704 25.1862 168.379 24.9453C168.06 24.6979 167.78 24.4017 167.539 24.0566C167.298 23.7051 167.103 23.3014 166.953 22.8457C166.81 22.39 166.738 21.8757 166.738 21.3027V15.4434H169.277V21.3027C169.277 21.6348 169.333 21.9342 169.443 22.2012C169.561 22.4616 169.717 22.6862 169.912 22.875C170.107 23.0638 170.335 23.2103 170.596 23.3145C170.863 23.4121 171.149 23.4609 171.455 23.4609H175.898V15.4434H178.438V24.7207ZM192.402 22.4355C192.402 22.8717 192.347 23.2656 192.236 23.6172C192.126 23.9622 191.979 24.2682 191.797 24.5352C191.615 24.7956 191.403 25.0202 191.162 25.209C190.921 25.3913 190.667 25.541 190.4 25.6582C190.14 25.7754 189.873 25.8633 189.6 25.9219C189.333 25.974 189.079 26 188.838 26H184.258C183.822 26 183.431 25.9447 183.086 25.834C182.741 25.7233 182.435 25.5768 182.168 25.3945C181.908 25.2057 181.683 24.9909 181.494 24.75C181.312 24.5091 181.162 24.2585 181.045 23.998C180.928 23.7311 180.84 23.4642 180.781 23.1973C180.729 22.9238 180.703 22.6699 180.703 22.4355V18.998C180.703 18.347 180.82 17.7969 181.055 17.3477C181.296 16.8919 181.592 16.5241 181.943 16.2441C182.301 15.9577 182.689 15.7526 183.105 15.6289C183.522 15.5052 183.906 15.4434 184.258 15.4434H188.838V17.9824H184.277C183.939 17.9824 183.682 18.0703 183.506 18.2461C183.33 18.4154 183.242 18.666 183.242 18.998V22.416C183.242 22.7611 183.327 23.0215 183.496 23.1973C183.672 23.373 183.926 23.4609 184.258 23.4609H188.838C189.183 23.4609 189.44 23.373 189.609 23.1973C189.779 23.0215 189.863 22.7676 189.863 22.4355V10.9805H192.402V22.4355ZM215.068 21.8789C215.068 22.3802 215.003 22.8327 214.873 23.2363C214.749 23.6335 214.583 23.985 214.375 24.291C214.167 24.597 213.923 24.8574 213.643 25.0723C213.363 25.2871 213.073 25.4629 212.773 25.5996C212.474 25.7363 212.168 25.8372 211.855 25.9023C211.549 25.9674 211.26 26 210.986 26H201.191V23.4609H210.986C211.475 23.4609 211.852 23.3177 212.119 23.0312C212.393 22.7448 212.529 22.3607 212.529 21.8789C212.529 21.6445 212.493 21.4297 212.422 21.2344C212.35 21.0391 212.246 20.8698 212.109 20.7266C211.979 20.5833 211.816 20.4727 211.621 20.3945C211.432 20.3164 211.221 20.2773 210.986 20.2773H205.146C204.736 20.2773 204.294 20.2057 203.818 20.0625C203.343 19.9128 202.9 19.6751 202.49 19.3496C202.087 19.0241 201.748 18.5977 201.475 18.0703C201.208 17.543 201.074 16.8984 201.074 16.1367C201.074 15.375 201.208 14.7337 201.475 14.2129C201.748 13.6855 202.087 13.2591 202.49 12.9336C202.9 12.6016 203.343 12.3639 203.818 12.2207C204.294 12.071 204.736 11.9961 205.146 11.9961H213.789V14.5352H205.146C204.665 14.5352 204.287 14.6816 204.014 14.9746C203.747 15.2676 203.613 15.6549 203.613 16.1367C203.613 16.625 203.747 17.0124 204.014 17.2988C204.287 17.5788 204.665 17.7188 205.146 17.7188H210.986H211.006C211.279 17.7253 211.569 17.7643 211.875 17.8359C212.181 17.901 212.484 18.0052 212.783 18.1484C213.089 18.2917 213.379 18.474 213.652 18.6953C213.926 18.9102 214.167 19.1706 214.375 19.4766C214.59 19.7826 214.759 20.1341 214.883 20.5312C215.007 20.9284 215.068 21.3776 215.068 21.8789ZM228.535 27.0156C228.535 27.4518 228.48 27.8424 228.369 28.1875C228.258 28.5391 228.112 28.8451 227.93 29.1055C227.747 29.3724 227.536 29.597 227.295 29.7793C227.054 29.9681 226.8 30.1211 226.533 30.2383C226.273 30.3555 226.009 30.4401 225.742 30.4922C225.475 30.5508 225.221 30.5801 224.98 30.5801H220.4V28.041H224.98C225.319 28.041 225.573 27.9531 225.742 27.7773C225.911 27.6016 225.996 27.3477 225.996 27.0156V15.4434H228.535V27.0156ZM224.98 26H220.4C220.036 26 219.645 25.9382 219.229 25.8145C218.818 25.6908 218.434 25.4889 218.076 25.209C217.718 24.9225 217.422 24.5547 217.188 24.1055C216.953 23.6497 216.836 23.0931 216.836 22.4355V15.4434H219.375V22.4355C219.375 22.7676 219.463 23.0215 219.639 23.1973C219.814 23.373 220.075 23.4609 220.42 23.4609H224.98V26ZM242.656 26H240.117V20.1406C240.117 19.8086 240.059 19.5124 239.941 19.252C239.831 18.985 239.678 18.7572 239.482 18.5684C239.287 18.3796 239.056 18.2363 238.789 18.1387C238.529 18.0345 238.245 17.9824 237.939 17.9824H233.496V26H230.957V16.7031C230.957 16.5273 230.99 16.3646 231.055 16.2148C231.12 16.0586 231.211 15.9251 231.328 15.8145C231.445 15.6973 231.582 15.6061 231.738 15.541C231.895 15.4759 232.061 15.4434 232.236 15.4434H237.959C238.278 15.4434 238.613 15.4792 238.965 15.5508C239.323 15.6224 239.674 15.7396 240.02 15.9023C240.371 16.0586 240.703 16.2604 241.016 16.5078C241.335 16.7487 241.615 17.0449 241.855 17.3965C242.103 17.7415 242.298 18.1419 242.441 18.5977C242.585 19.0534 242.656 19.5677 242.656 20.1406V26ZM255.107 26H248.223C247.871 26 247.487 25.9382 247.07 25.8145C246.654 25.6908 246.266 25.4889 245.908 25.209C245.557 24.9225 245.26 24.5547 245.02 24.1055C244.785 23.6497 244.668 23.0931 244.668 22.4355V18.998C244.668 18.7572 244.694 18.5033 244.746 18.2363C244.805 17.9694 244.893 17.7057 245.01 17.4453C245.127 17.1784 245.277 16.9245 245.459 16.6836C245.648 16.4427 245.872 16.2311 246.133 16.0488C246.4 15.8665 246.706 15.7201 247.051 15.6094C247.396 15.4987 247.786 15.4434 248.223 15.4434H255.107V17.9824H248.223C247.891 17.9824 247.637 18.0671 247.461 18.2363C247.292 18.4056 247.207 18.666 247.207 19.0176V22.4355C247.207 22.7676 247.295 23.0215 247.471 23.1973C247.646 23.373 247.904 23.4609 248.242 23.4609H255.107V26Z" fill="#02044A"/>
<path d="M67.7246 39.4619C67.7246 39.6182 67.6969 39.7858 67.6416 39.9648C67.5895 40.1439 67.5016 40.3099 67.3779 40.4629C67.2575 40.6159 67.0996 40.7445 66.9043 40.8486C66.709 40.9495 66.4697 41 66.1865 41H61.3672C61.276 41 61.1914 40.9837 61.1133 40.9512C61.0352 40.9186 60.9668 40.8747 60.9082 40.8193C60.8529 40.7607 60.8089 40.6924 60.7764 40.6143C60.7438 40.5361 60.7275 40.4515 60.7275 40.3604V34.6377C60.7275 34.5498 60.7438 34.4668 60.7764 34.3887C60.8089 34.3105 60.8529 34.2422 60.9082 34.1836C60.9668 34.125 61.0352 34.0794 61.1133 34.0469C61.1914 34.0143 61.276 33.998 61.3672 33.998H65.6152C65.7715 33.998 65.9391 34.0257 66.1182 34.0811C66.2972 34.1364 66.4632 34.2259 66.6162 34.3496C66.7725 34.4701 66.901 34.6279 67.002 34.8232C67.1061 35.0186 67.1582 35.2578 67.1582 35.541V35.7803C67.1582 36.0049 67.1208 36.2474 67.0459 36.5078C66.971 36.765 66.8506 37.0091 66.6846 37.2402C66.8278 37.3281 66.9613 37.4339 67.085 37.5576C67.2119 37.6813 67.3226 37.8245 67.417 37.9873C67.5114 38.1501 67.5863 38.334 67.6416 38.5391C67.6969 38.7441 67.7246 38.9704 67.7246 39.2178V39.4619ZM66.4551 39.2178C66.4551 39.0518 66.429 38.9036 66.377 38.7734C66.3249 38.64 66.2516 38.526 66.1572 38.4316C66.0628 38.3372 65.9489 38.2656 65.8154 38.2168C65.682 38.1647 65.5322 38.1387 65.3662 38.1387H62.5049V36.8594H64.7949C64.9609 36.8594 65.1107 36.835 65.2441 36.7861C65.3776 36.734 65.4915 36.6608 65.5859 36.5664C65.6803 36.472 65.752 36.3597 65.8008 36.2295C65.8529 36.096 65.8789 35.9463 65.8789 35.7803V35.541C65.8789 35.3587 65.791 35.2676 65.6152 35.2676H61.9971V39.7305H66.1865C66.2093 39.7305 66.237 39.7288 66.2695 39.7256C66.3021 39.7223 66.3314 39.7126 66.3574 39.6963C66.3835 39.68 66.4062 39.6523 66.4258 39.6133C66.4453 39.5742 66.4551 39.5205 66.4551 39.4521V39.2178ZM74.5117 41.5078C74.5117 41.7259 74.484 41.9212 74.4287 42.0938C74.3734 42.2695 74.3001 42.4225 74.209 42.5527C74.1178 42.6862 74.012 42.7985 73.8916 42.8896C73.7712 42.984 73.6442 43.0605 73.5107 43.1191C73.3805 43.1777 73.2487 43.2201 73.1152 43.2461C72.9818 43.2754 72.8548 43.29 72.7344 43.29H70.4443V42.0205H72.7344C72.9036 42.0205 73.0306 41.9766 73.1152 41.8887C73.1999 41.8008 73.2422 41.6738 73.2422 41.5078V35.7217H74.5117V41.5078ZM72.7344 41H70.4443C70.262 41 70.0667 40.9691 69.8584 40.9072C69.6533 40.8454 69.4613 40.7445 69.2822 40.6045C69.1032 40.4613 68.9551 40.2773 68.8379 40.0527C68.7207 39.8249 68.6621 39.5465 68.6621 39.2178V35.7217H69.9316V39.2178C69.9316 39.3838 69.9756 39.5107 70.0635 39.5986C70.1514 39.6865 70.2816 39.7305 70.4541 39.7305H72.7344V41ZM86.1035 38.0703C86.1035 38.4967 86.0286 38.889 85.8789 39.2471C85.7324 39.6051 85.529 39.9144 85.2686 40.1748C85.0081 40.432 84.6989 40.6338 84.3408 40.7803C83.9827 40.9268 83.5938 41 83.1738 41H79.7461C79.6549 41 79.5703 40.9837 79.4922 40.9512C79.4141 40.9186 79.3457 40.8747 79.2871 40.8193C79.2318 40.7607 79.1878 40.6924 79.1553 40.6143C79.1227 40.5361 79.1064 40.4515 79.1064 40.3604V34.6377C79.1064 34.5498 79.1227 34.4668 79.1553 34.3887C79.1878 34.3105 79.2318 34.2422 79.2871 34.1836C79.3457 34.125 79.4141 34.0794 79.4922 34.0469C79.5703 34.0143 79.6549 33.998 79.7461 33.998H83.1738C83.5938 33.998 83.9827 34.0713 84.3408 34.2178C84.6989 34.3643 85.0081 34.5677 85.2686 34.8281C85.529 35.0853 85.7324 35.3945 85.8789 35.7559C86.0286 36.1139 86.1035 36.5046 86.1035 36.9277V38.0703ZM84.834 36.9277C84.834 36.6803 84.7933 36.4541 84.7119 36.249C84.6338 36.0439 84.5215 35.8698 84.375 35.7266C84.2285 35.5801 84.0527 35.4678 83.8477 35.3896C83.6458 35.3083 83.4212 35.2676 83.1738 35.2676H80.376V39.7305H83.1738C83.4212 39.7305 83.6458 39.6914 83.8477 39.6133C84.0527 39.5319 84.2285 39.4196 84.375 39.2764C84.5215 39.1299 84.6338 38.9557 84.7119 38.7539C84.7933 38.5488 84.834 38.321 84.834 38.0703V36.9277ZM92.9785 40.3604C92.9785 40.4515 92.9622 40.5361 92.9297 40.6143C92.8971 40.6924 92.8516 40.7607 92.793 40.8193C92.7376 40.8747 92.6709 40.9186 92.5928 40.9512C92.5179 40.9837 92.4365 41 92.3486 41H89.4775C89.3213 41 89.1536 40.9821 88.9746 40.9463C88.7988 40.9105 88.6247 40.8535 88.4521 40.7754C88.2796 40.694 88.112 40.5931 87.9492 40.4727C87.7897 40.349 87.6497 40.2008 87.5293 40.0283C87.4089 39.8525 87.3112 39.6507 87.2363 39.4229C87.1647 39.195 87.1289 38.9378 87.1289 38.6514V35.7217H88.3984V38.6514C88.3984 38.8174 88.4261 38.9671 88.4814 39.1006C88.54 39.2308 88.6182 39.3431 88.7158 39.4375C88.8135 39.5319 88.9274 39.6051 89.0576 39.6572C89.1911 39.7061 89.3343 39.7305 89.4873 39.7305H91.709V35.7217H92.9785V40.3604ZM99.9609 39.2178C99.9609 39.4359 99.9333 39.6328 99.8779 39.8086C99.8226 39.9811 99.7493 40.1341 99.6582 40.2676C99.5671 40.3978 99.4613 40.5101 99.3408 40.6045C99.2204 40.6956 99.0934 40.7705 98.96 40.8291C98.8298 40.8877 98.6963 40.9316 98.5596 40.9609C98.4261 40.987 98.2992 41 98.1787 41H95.8887C95.6706 41 95.4753 40.9723 95.3027 40.917C95.1302 40.8617 94.9772 40.7884 94.8438 40.6973C94.7135 40.6029 94.6012 40.4954 94.5068 40.375C94.4157 40.2546 94.3408 40.1292 94.2822 39.999C94.2236 39.8656 94.1797 39.7321 94.1504 39.5986C94.1243 39.4619 94.1113 39.335 94.1113 39.2178V37.499C94.1113 37.1735 94.1699 36.8984 94.2871 36.6738C94.4076 36.446 94.5557 36.262 94.7314 36.1221C94.9105 35.9788 95.1042 35.8763 95.3125 35.8145C95.5208 35.7526 95.7129 35.7217 95.8887 35.7217H98.1787V36.9912H95.8984C95.7292 36.9912 95.6006 37.0352 95.5127 37.123C95.4248 37.2077 95.3809 37.333 95.3809 37.499V39.208C95.3809 39.3805 95.4232 39.5107 95.5078 39.5986C95.5957 39.6865 95.7227 39.7305 95.8887 39.7305H98.1787C98.3512 39.7305 98.4798 39.6865 98.5645 39.5986C98.6491 39.5107 98.6914 39.3838 98.6914 39.2178V33.4902H99.9609V39.2178ZM103.491 41H102.925C102.743 41 102.547 40.9691 102.339 40.9072C102.134 40.8454 101.942 40.7445 101.763 40.6045C101.584 40.4613 101.436 40.2773 101.318 40.0527C101.201 39.8249 101.143 39.5465 101.143 39.2178V33.4902H102.412V39.2178C102.412 39.374 102.461 39.4993 102.559 39.5938C102.656 39.6849 102.778 39.7305 102.925 39.7305H103.491V41ZM109.985 37.4697C109.985 37.6455 109.954 37.8359 109.893 38.041C109.831 38.2428 109.73 38.4316 109.59 38.6074C109.453 38.7799 109.272 38.9248 109.048 39.042C108.826 39.1592 108.556 39.2178 108.237 39.2178H105.947V38.0117H108.237C108.41 38.0117 108.543 37.9596 108.638 37.8555C108.732 37.748 108.779 37.6162 108.779 37.46C108.779 37.2939 108.726 37.1637 108.618 37.0693C108.514 36.9749 108.387 36.9277 108.237 36.9277H105.947C105.775 36.9277 105.641 36.9814 105.547 37.0889C105.452 37.193 105.405 37.3232 105.405 37.4795V39.252C105.405 39.4212 105.457 39.5531 105.562 39.6475C105.669 39.7419 105.801 39.7891 105.957 39.7891H108.237V41H105.947C105.771 41 105.581 40.9691 105.376 40.9072C105.174 40.8454 104.985 40.7461 104.81 40.6094C104.637 40.4694 104.492 40.2887 104.375 40.0674C104.258 39.8428 104.199 39.571 104.199 39.252V37.4697C104.199 37.2939 104.23 37.1051 104.292 36.9033C104.354 36.6982 104.453 36.5094 104.59 36.3369C104.73 36.1611 104.91 36.0146 105.132 35.8975C105.356 35.7803 105.628 35.7217 105.947 35.7217H108.237C108.413 35.7217 108.602 35.7526 108.804 35.8145C109.009 35.8763 109.198 35.9772 109.37 36.1172C109.546 36.2539 109.692 36.4346 109.81 36.6592C109.927 36.8805 109.985 37.1507 109.985 37.4697ZM119.531 35.7217C119.329 36.1742 119.111 36.6201 118.877 37.0596C118.643 37.4958 118.397 37.9092 118.14 38.2998C117.886 38.6904 117.625 39.0518 117.358 39.3838C117.091 39.7126 116.826 39.9974 116.562 40.2383C116.302 40.4759 116.047 40.6631 115.796 40.7998C115.549 40.9333 115.314 41 115.093 41C115.002 41 114.917 40.9837 114.839 40.9512C114.761 40.9186 114.692 40.8747 114.634 40.8193C114.575 40.7607 114.53 40.6924 114.497 40.6143C114.465 40.5361 114.448 40.4515 114.448 40.3604V37.9922L111.929 40.8096C111.864 40.8747 111.792 40.9235 111.714 40.9561C111.639 40.9854 111.561 41 111.479 41C111.392 41 111.309 40.9837 111.23 40.9512C111.156 40.9186 111.089 40.8747 111.03 40.8193C110.972 40.7607 110.924 40.6924 110.889 40.6143C110.856 40.5361 110.84 40.4515 110.84 40.3604V35.7217H112.109V38.7295L114.639 35.9023C114.73 35.8112 114.837 35.7542 114.961 35.7314C115.088 35.7054 115.212 35.7184 115.332 35.7705C115.452 35.8193 115.547 35.8975 115.615 36.0049C115.687 36.109 115.723 36.2246 115.723 36.3516V39.3691C115.996 39.1055 116.243 38.8271 116.465 38.5342C116.686 38.2412 116.891 37.9401 117.08 37.6309C117.272 37.3184 117.451 37.0026 117.617 36.6836C117.786 36.3613 117.951 36.0407 118.11 35.7217H119.531ZM125.649 37.4697C125.649 37.6455 125.618 37.8359 125.557 38.041C125.495 38.2428 125.394 38.4316 125.254 38.6074C125.117 38.7799 124.937 38.9248 124.712 39.042C124.491 39.1592 124.22 39.2178 123.901 39.2178H121.611V38.0117H123.901C124.074 38.0117 124.207 37.9596 124.302 37.8555C124.396 37.748 124.443 37.6162 124.443 37.46C124.443 37.2939 124.39 37.1637 124.282 37.0693C124.178 36.9749 124.051 36.9277 123.901 36.9277H121.611C121.439 36.9277 121.305 36.9814 121.211 37.0889C121.117 37.193 121.069 37.3232 121.069 37.4795V39.252C121.069 39.4212 121.121 39.5531 121.226 39.6475C121.333 39.7419 121.465 39.7891 121.621 39.7891H123.901V41H121.611C121.436 41 121.245 40.9691 121.04 40.9072C120.838 40.8454 120.649 40.7461 120.474 40.6094C120.301 40.4694 120.156 40.2887 120.039 40.0674C119.922 39.8428 119.863 39.571 119.863 39.252V37.4697C119.863 37.2939 119.894 37.1051 119.956 36.9033C120.018 36.6982 120.117 36.5094 120.254 36.3369C120.394 36.1611 120.575 36.0146 120.796 35.8975C121.021 35.7803 121.292 35.7217 121.611 35.7217H123.901C124.077 35.7217 124.266 35.7526 124.468 35.8145C124.673 35.8763 124.862 35.9772 125.034 36.1172C125.21 36.2539 125.356 36.4346 125.474 36.6592C125.591 36.8805 125.649 37.1507 125.649 37.4697ZM132.324 39.2178C132.324 39.3382 132.31 39.4652 132.28 39.5986C132.254 39.7321 132.212 39.8656 132.153 39.999C132.095 40.1292 132.018 40.2546 131.924 40.375C131.833 40.4954 131.72 40.6029 131.587 40.6973C131.457 40.7884 131.305 40.8617 131.133 40.917C130.96 40.9723 130.765 41 130.547 41H128.257C128.136 41 128.009 40.987 127.876 40.9609C127.743 40.9316 127.609 40.8877 127.476 40.8291C127.345 40.7705 127.22 40.6956 127.1 40.6045C126.979 40.5101 126.872 40.3978 126.777 40.2676C126.686 40.1341 126.613 39.9811 126.558 39.8086C126.502 39.6328 126.475 39.4359 126.475 39.2178V33.4902H127.744V39.2178C127.744 39.374 127.793 39.4993 127.891 39.5938C127.988 39.6849 128.11 39.7305 128.257 39.7305H130.547C130.706 39.7305 130.83 39.6833 130.918 39.5889C131.009 39.4945 131.055 39.3708 131.055 39.2178V37.499C131.055 37.3395 131.007 37.2158 130.913 37.1279C130.819 37.0368 130.697 36.9912 130.547 36.9912H128.257V35.7217H130.547C130.667 35.7217 130.794 35.7363 130.928 35.7656C131.061 35.7917 131.193 35.834 131.323 35.8926C131.457 35.9512 131.584 36.0277 131.704 36.1221C131.825 36.2132 131.93 36.3255 132.021 36.459C132.113 36.5892 132.186 36.7406 132.241 36.9131C132.297 37.0856 132.324 37.2809 132.324 37.499V39.2178ZM138.511 39.2178C138.511 39.4359 138.483 39.6328 138.428 39.8086C138.372 39.9811 138.299 40.1341 138.208 40.2676C138.117 40.3978 138.011 40.5101 137.891 40.6045C137.77 40.6956 137.643 40.7705 137.51 40.8291C137.38 40.8877 137.246 40.9316 137.109 40.9609C136.976 40.987 136.849 41 136.729 41H133.291V39.7305H136.719C136.891 39.7305 137.021 39.6865 137.109 39.5986C137.197 39.5107 137.241 39.3838 137.241 39.2178C137.225 38.8792 137.054 38.71 136.729 38.71H134.761C134.481 38.71 134.243 38.6611 134.048 38.5635C133.853 38.4658 133.693 38.3438 133.569 38.1973C133.449 38.0508 133.361 37.8929 133.306 37.7236C133.254 37.5544 133.228 37.3965 133.228 37.25C133.228 36.9668 133.278 36.7292 133.379 36.5371C133.48 36.3418 133.607 36.1839 133.76 36.0635C133.913 35.943 134.079 35.8568 134.258 35.8047C134.437 35.7493 134.604 35.7217 134.761 35.7217H137.881V36.9912H134.771C134.705 36.9912 134.653 36.9993 134.614 37.0156C134.578 37.0286 134.551 37.0482 134.531 37.0742C134.515 37.097 134.505 37.123 134.502 37.1523C134.499 37.1784 134.497 37.2044 134.497 37.2305C134.5 37.2826 134.51 37.3232 134.526 37.3525C134.543 37.3818 134.562 37.403 134.585 37.416C134.611 37.429 134.639 37.4372 134.668 37.4404C134.701 37.4404 134.731 37.4404 134.761 37.4404H136.729C137.054 37.4404 137.331 37.499 137.559 37.6162C137.786 37.7334 137.97 37.8815 138.11 38.0605C138.25 38.2363 138.351 38.4284 138.413 38.6367C138.478 38.8451 138.511 39.0387 138.511 39.2178Z" fill="#02044A"/>
<mask id="mask0_34_90" style="mask-type:alpha" maskUnits="userSpaceOnUse" x="0" y="0" width="50" height="50">
<rect width="50" height="50" rx="8" fill="#02044A"/>
</mask>
<g mask="url(#mask0_34_90)">
<rect width="50" height="50" rx="8" fill="#02044A"/>
<path d="M22.0223 45.2774C21.6047 44.5107 5.21145 17.1546 5.21145 17.1546L4.42479 15.8931L3.47247 16.063C1.56782 16.403 1.63649 14.428 2.83666 14.0736C4.03683 13.7192 11.1112 12.4567 12.3357 12.2382C13.8322 11.9711 13.9871 13.6258 13.059 13.9316C11.7228 14.3103 11.4507 14.3588 11.4507 14.3588L23.3907 35.6402L25.5431 20.9564L20.7504 12.9795C20.7504 12.9795 19.9098 12.9893 18.253 13.1448C17.1404 13.2032 16.9855 11.5485 18.0739 11.3543L29.7738 9.26626C31.0335 9.04146 31.1804 10.6626 30.3612 10.984C29.7052 11.2412 27.6887 11.7413 27.6887 11.7413L39.7985 33.9737C39.9964 32.7234 40.1599 28.1333 40.647 24.5695C41.2558 20.1149 40.3438 15.7915 39.5329 14.3941C38.6483 12.8696 36.5899 10.7135 35.6575 9.19758C33.4821 5.66041 37.5985 1.98172 40.6346 3.26239C43.0635 4.28692 44.8518 10.2863 44.2891 15.0874C43.2318 24.1082 41.1991 38.5184 40.7239 41.5192C40.3812 43.6832 38.43 43.6109 37.5949 42.0776C36.9685 40.9277 27.1406 23.6153 27.1406 23.6153C26.073 29.694 24.0589 42.5306 23.6548 44.986C23.1537 46.8979 22.4398 46.044 22.0223 45.2774Z" fill="#25CC87" fill-opacity="0.12"/>
<path d="M33.5997 22.6463L33.6736 23.0222L34.0557 23.0487C37.034 23.2557 39.3795 25.716 39.3795 28.7499C39.3795 31.9257 36.8127 34.4999 33.6546 34.4999H17.4699C13.627 34.4999 10.5 31.3632 10.5 27.4999V27.4999C10.4998 25.7747 11.1346 24.1106 12.2819 22.8273C13.4292 21.5441 15.0079 20.7322 16.7146 20.547L16.9811 20.5181L17.1045 20.2802C18.5786 17.4384 21.5368 15.4999 24.9398 15.4999H24.9399C26.9837 15.4995 28.9645 16.2114 30.544 17.5146C32.1235 18.8179 33.2038 20.6317 33.5997 22.6463Z" stroke="white"/>
<circle cx="25.1667" cy="25.8333" r="3.66667" stroke="white"/>
<g filter="url(#filter0_d_34_90)">
<path d="M26.0001 24.9999V28.3756L25.5001 28.8333V22.8333L27.1667 24.9999H26.0001Z" fill="white"/>
<path d="M24.5 26.6666V23.2909L25 22.8333V28.8333L23.3334 26.6666H24.5Z" fill="white"/>
</g>
</g>
<defs>
<filter id="filter0_d_34_90" x="15.3334" y="14.8333" width="19.8334" height="22" filterUnits="userSpaceOnUse" color-interpolation-filters="sRGB">
<feFlood flood-opacity="0" result="BackgroundImageFix"/>
<feColorMatrix in="SourceAlpha" type="matrix" values="0 0 0 0 0 0 0 0 0 0 0 0 0 0 0 0 0 0 127 0" result="hardAlpha"/>
<feOffset/>
<feGaussianBlur stdDeviation="4"/>
<feComposite in2="hardAlpha" operator="out"/>
<feColorMatrix type="matrix" values="0 0 0 0 0.00784314 0 0 0 0 0.0156863 0 0 0 0 0.290196 0 0 0 0.16 0"/>
<feBlend mode="normal" in2="BackgroundImageFix" result="effect1_dropShadow_34_90"/>
<feBlend mode="normal" in="SourceGraphic" in2="effect1_dropShadow_34_90" result="shape"/>
</filter>
</defs>
</svg>
