<svg viewBox="0 0 14 14" fill="none" xmlns="http://www.w3.org/2000/svg">
<path d="M13.7 8.47283C13.7 8.7795 13.587 9.04539 13.361 9.2705C13.1351 9.49572 12.8683 9.60833 12.5605 9.60833L5.22717 9.60833C4.9205 9.60833 4.65461 9.49572 4.4295 9.2705C4.20428 9.04539 4.09167 8.7795 4.09167 8.47283L4.09167 1.1395C4.09167 0.831722 4.20428 0.564889 4.4295 0.339C4.65461 0.113 4.9205 3.71033e-07 5.22717 3.57628e-07L12.5605 0C12.8683 -1.34534e-08 13.1351 0.112999 13.361 0.338999C13.587 0.564888 13.7 0.831722 13.7 1.1395V8.47283ZM12.5605 8.47283V1.1395L5.22717 1.1395L5.22717 8.47283L12.5605 8.47283ZM11.2262 11.6522L3.18333 11.6522C2.87556 11.6522 2.60872 11.5396 2.38283 11.3143C2.15683 11.0892 2.04383 10.8233 2.04383 10.5167L2.04383 2.47383C2.04383 2.31361 2.09944 2.17894 2.21067 2.06983C2.32189 1.96072 2.45794 1.90617 2.61883 1.90617C2.77972 1.90617 2.914 1.96072 3.02167 2.06983C3.12944 2.17894 3.18333 2.31361 3.18333 2.47383L3.18333 10.5167H11.2262C11.3864 10.5167 11.5211 10.5715 11.6302 10.6812C11.7393 10.7908 11.7938 10.9262 11.7938 11.0873C11.7938 11.2484 11.7393 11.3828 11.6302 11.4905C11.5211 11.5983 11.3864 11.6522 11.2262 11.6522ZM9.22617 13.7H1.1395C0.831722 13.7 0.56489 13.587 0.339001 13.361C0.113001 13.1351 3.71081e-07 12.8683 3.57628e-07 12.5605L0 4.47383C-7.00354e-09 4.31361 0.0548332 4.17894 0.1645 4.06983C0.274167 3.96072 0.410222 3.90617 0.572666 3.90617C0.735111 3.90617 0.870166 3.96072 0.977833 4.06983C1.08561 4.17894 1.1395 4.31361 1.1395 4.47383L1.1395 12.5605L9.22617 12.5605C9.38639 12.5605 9.52106 12.6153 9.63017 12.725C9.73928 12.8347 9.79383 12.9707 9.79383 13.1332C9.79383 13.2956 9.73928 13.4307 9.63017 13.5383C9.52106 13.6461 9.38639 13.7 9.22617 13.7Z" fill="rgb(0, 92, 228)"/>
<path d="M9.17951 6.5152L8.35434 5.4027C8.30179 5.3417 8.23729 5.31053 8.16084 5.3092C8.0844 5.30787 8.02106 5.33787 7.97084 5.3992L7.13034 6.51853C7.07734 6.60209 7.07179 6.68631 7.11368 6.7712C7.15545 6.85609 7.2234 6.89853 7.31751 6.89853H11.7748C11.8635 6.89853 11.9301 6.85609 11.9747 6.7712C12.0192 6.68631 12.0151 6.60209 11.9622 6.51853L10.7668 4.93553C10.7155 4.87487 10.652 4.84453 10.5763 4.84453C10.5007 4.84453 10.4377 4.8752 10.3875 4.93653L9.17951 6.5152Z" fill="rgb(0, 92, 228)"/>
</svg>
