<svg viewBox="0 0 15 15" fill="none" xmlns="http://www.w3.org/2000/svg">
	<path d="M10.8667 9.86667V3.83333H4.83333V2.7H10.8667C11.1778 2.7 11.4444 2.81111 11.6667 3.03333C11.8889 3.25556 12 3.52222 12 3.83333V9.86667H10.8667ZM11.4333 14.7C11.2667 14.7 11.1306 14.6472 11.025 14.5417C10.9194 14.4361 10.8667 14.3 10.8667 14.1333V12H3.83333C3.52222 12 3.25556 11.8889 3.03333 11.6667C2.81111 11.4444 2.7 11.1778 2.7 10.8667V3.83333H0.566667C0.4 3.83333 0.263889 3.77778 0.158333 3.66667C0.0527777 3.55556 0 3.42222 0 3.26667C0 3.1 0.0527777 2.96389 0.158333 2.85833C0.263889 2.75278 0.4 2.7 0.566667 2.7H2.7V0.566667C2.7 0.4 2.75556 0.263889 2.86667 0.158333C2.97778 0.0527777 3.11111 0 3.26667 0C3.43333 0 3.56944 0.0527777 3.675 0.158333C3.78056 0.263889 3.83333 0.4 3.83333 0.566667V10.8667H14.1333C14.3 10.8667 14.4361 10.9222 14.5417 11.0333C14.6472 11.1444 14.7 11.2778 14.7 11.4333C14.7 11.6 14.6472 11.7361 14.5417 11.8417C14.4361 11.9472 14.3 12 14.1333 12H12V14.1333C12 14.3 11.9444 14.4361 11.8333 14.5417C11.7222 14.6472 11.5889 14.7 11.4333 14.7Z" fill="rgb(0, 92, 228)"/>
</svg>
