<svg viewBox="0 0 13 15" fill="none" xmlns="http://www.w3.org/2000/svg">
<path d="M1.23333 14.1C0.888889 14.1 0.597222 13.9806 0.358333 13.7417C0.119444 13.5028 0 13.2111 0 12.8667C0 12.5222 0.119444 12.2306 0.358333 11.9917C0.597222 11.7528 0.888889 11.6333 1.23333 11.6333H11.7667C12.1111 11.6333 12.4028 11.7528 12.6417 11.9917C12.8806 12.2306 13 12.5222 13 12.8667C13 13.2111 12.8806 13.5028 12.6417 13.7417C12.4028 13.9806 12.1111 14.1 11.7667 14.1H1.23333ZM3 9.33333C2.73333 9.33333 2.54167 9.25278 2.425 9.09167C2.30833 8.93056 2.3 8.72778 2.4 8.48333L5.51667 0.683333C5.59444 0.494444 5.72778 0.333333 5.91667 0.2C6.10556 0.0666667 6.30556 0 6.51667 0C6.72778 0 6.92778 0.0666667 7.11667 0.2C7.30556 0.333333 7.43889 0.494444 7.51667 0.683333L10.6 8.46667C10.7 8.71111 10.6944 8.91667 10.5833 9.08333C10.4722 9.25 10.2778 9.33333 10 9.33333C9.87778 9.33333 9.75833 9.29444 9.64167 9.21667C9.525 9.13889 9.44445 9.03889 9.4 8.91667L8.61667 6.88333H4.36667L3.58333 8.93333C3.53889 9.04444 3.46389 9.13889 3.35833 9.21667C3.25278 9.29444 3.13333 9.33333 3 9.33333ZM4.78333 5.76667H8.2L6.53333 1.33333H6.46667L4.78333 5.76667Z" fill="rgb(0, 92, 228)"/></svg>