<svg width="16" height="16" viewBox="0 0 16 16" fill="none" xmlns="http://www.w3.org/2000/svg">
<path d="M5.18307 12.7334C5.01641 12.7334 4.8803 12.6806 4.77474 12.575C4.66918 12.4695 4.61641 12.3334 4.61641 12.1667C4.61641 12 4.66918 11.8639 4.77474 11.7584C4.8803 11.6528 5.01641 11.6 5.18307 11.6H9.49974C10.2553 11.6 10.9081 11.3473 11.4581 10.8417C12.0081 10.3362 12.2831 9.71116 12.2831 8.96672C12.2831 8.22227 12.0081 7.59727 11.4581 7.09172C10.9081 6.58616 10.2553 6.33338 9.49974 6.33338H4.74974L6.18307 7.76672C6.29418 7.87783 6.34974 8.01116 6.34974 8.16672C6.34974 8.32227 6.29418 8.4556 6.18307 8.56672C6.07196 8.67783 5.93863 8.73338 5.78307 8.73338C5.62752 8.73338 5.49418 8.67783 5.38307 8.56672L2.98307 6.16672C2.92752 6.10005 2.88585 6.03616 2.85807 5.97505C2.8303 5.91394 2.81641 5.84449 2.81641 5.76672C2.81641 5.68894 2.8303 5.61949 2.85807 5.55838C2.88585 5.49727 2.92752 5.43338 2.98307 5.36672L5.38307 2.96672C5.49418 2.8556 5.62752 2.80005 5.78307 2.80005C5.93863 2.80005 6.07196 2.8556 6.18307 2.96672C6.29418 3.07783 6.34974 3.21116 6.34974 3.36672C6.34974 3.52227 6.29418 3.6556 6.18307 3.76672L4.74974 5.20005H9.48307C10.5609 5.20005 11.4859 5.56394 12.2581 6.29172C13.0303 7.01949 13.4164 7.91116 13.4164 8.96672C13.4164 10.0223 13.0303 10.9139 12.2581 11.6417C11.4859 12.3695 10.5609 12.7334 9.48307 12.7334H5.18307Z" fill="currentColor"/>
</svg>
