<svg width="24" height="25" viewBox="0 0 24 25" fill="none" xmlns="http://www.w3.org/2000/svg">
<path d="M15.157 17.8571V14.2857H18.7284V11.9048L23.4904 16.0714L18.7284 20.2381V17.8571H15.157ZM17.538 19.0476V22.619H13.9665V25L9.20464 20.8333L13.9665 16.6667V19.0476H17.538ZM11.5856 7.14286C8.95464 7.14286 6.82369 9.28572 6.82369 11.9048C6.82369 14.1786 8.43083 16.119 10.6451 16.5714L16.3475 11.7381C16.3052 10.504 15.7847 9.33463 14.8962 8.47715C14.0076 7.61967 12.8204 7.14121 11.5856 7.14286M11.5856 14.2857C10.2761 14.2857 9.20464 13.2262 9.20464 11.9048C9.20464 10.5833 10.2761 9.52381 11.5856 9.52381C12.8951 9.52381 13.9665 10.5952 13.9665 11.9048C13.9665 13.2143 12.907 14.2857 11.5856 14.2857ZM23.0856 8.01191L20.7046 3.89286C20.5618 3.63095 20.2523 3.52381 19.9784 3.63095L17.0142 4.82143C16.407 4.33334 15.7523 3.94048 15.0023 3.63095L14.5618 0.500002C14.5376 0.359784 14.4646 0.232653 14.3556 0.141135C14.2467 0.0496165 14.1088 -0.000380684 13.9665 2.1827e-06H9.20464C8.90702 2.1827e-06 8.65702 0.214288 8.6094 0.500002L8.16892 3.65476C7.41892 3.96429 6.77607 4.35714 6.15702 4.84524L3.25226 3.63095C2.97845 3.52381 2.65702 3.63095 2.52607 3.89286L0.145116 8.01191C-0.00964596 8.26191 0.0498777 8.59524 0.276068 8.77381L2.74035 10.7143L2.65702 11.9048L2.74035 13.0952L0.228449 15.0357C-0.00964604 15.2143 -0.06917 15.5476 0.0855919 15.7976L2.46654 19.9167C2.5975 20.2381 2.94273 20.369 3.25226 20.2381L6.22845 19.0476C6.51416 19.2738 6.82369 19.4881 7.13321 19.6786L9.0975 18.0119C8.18083 17.619 7.37131 17.0357 6.71654 16.2857L3.8475 17.4762L2.93083 15.9286L5.39512 14.0476C4.91893 12.6587 4.91893 11.1508 5.39512 9.76191L2.88321 7.91667L3.77607 6.36905L6.64512 7.55953C7.57369 6.4881 8.82369 5.7381 10.2165 5.44048L10.6927 2.38095H12.4784L12.9189 5.5C14.3118 5.78572 15.5618 6.54762 16.4904 7.60714L19.3594 6.41667L20.2523 7.96429L17.7761 9.76191C17.8832 10.0714 17.9665 10.3929 18.0142 10.7143H20.3951L22.8951 8.77381C23.0182 8.69521 23.1066 8.57246 23.142 8.43077C23.1774 8.28907 23.1572 8.13919 23.0856 8.01191M11.5856 7.14286C8.95464 7.14286 6.82369 9.28572 6.82369 11.9048C6.82369 14.1786 8.43083 16.119 10.6451 16.5714L16.3475 11.7381C16.3052 10.504 15.7847 9.33463 14.8962 8.47715C14.0076 7.61967 12.8204 7.14121 11.5856 7.14286M11.5856 14.2857C10.2761 14.2857 9.20464 13.2262 9.20464 11.9048C9.20464 10.5833 10.2761 9.52381 11.5856 9.52381C12.8951 9.52381 13.9665 10.5952 13.9665 11.9048C13.9665 13.2143 12.907 14.2857 11.5856 14.2857ZM11.5856 7.14286C8.95464 7.14286 6.82369 9.28572 6.82369 11.9048C6.82369 14.1786 8.43083 16.119 10.6451 16.5714L16.3475 11.7381C16.3052 10.504 15.7847 9.33463 14.8962 8.47715C14.0076 7.61967 12.8204 7.14121 11.5856 7.14286M11.5856 14.2857C10.2761 14.2857 9.20464 13.2262 9.20464 11.9048C9.20464 10.5833 10.2761 9.52381 11.5856 9.52381C12.8951 9.52381 13.9665 10.5952 13.9665 11.9048C13.9665 13.2143 12.907 14.2857 11.5856 14.2857Z" fill="white"/>
</svg>
