<svg width="28" height="32" viewBox="0 0 28 32" fill="none" xmlns="http://www.w3.org/2000/svg">
<path d="M7 14.74H6.75V14.99V16.99V17.24H7H7.75H8H8.25H19.75H20H20.25H21H21.25V16.99V14.99V14.74H21H20.25H20H19.75H8.25H8H7.75H7ZM8.25 20.7363V20.736H8.00029H8L7.75 20.7357V20.736H7H6.75V20.986V22.986V23.236H7H7.99971H8L19.75 23.2497V23.25H19.9997H20L20.25 23.2503V23.25H21H21.25V23V21V20.75H21H20.0003H20L8.25 20.7363ZM8.25 8.74419V8.744H8.00019H8L7.75 8.74381V8.744H7H6.75V8.994V10.994V11.244H7H7.99981H8L15.75 11.2498V11.25H15.9998H16L16.25 11.2502V11.25H17H17.25V11V9V8.75H17H16.0002H16L8.25 8.74419ZM3.75 0.759622C2.97951 0.819037 2.2522 1.15161 1.7019 1.7019C1.15161 2.2522 0.819037 2.97951 0.759622 3.75H0.75V4V4.25V27.75V28V28.25H0.759622C0.819037 29.0205 1.15161 29.7478 1.7019 30.2981C2.2522 30.8484 2.97951 31.181 3.75 31.2404V31.25H4H4.25H23.75H24H24.25V31.2404C25.0205 31.181 25.7478 30.8484 26.2981 30.2981C26.8484 29.7478 27.181 29.0205 27.2404 28.25H27.25V28V27.75V8.25V8V7.75V7.586V7.48295L27.1774 7.40983L27.061 7.2926L27.0616 7.292L26.8854 7.11583L26.8848 7.11522L26.7086 6.93784L26.708 6.93845L21.0616 1.292L21.0622 1.2914L20.8848 1.11522L20.8842 1.11462L20.708 0.938447L20.7074 0.939049L20.5902 0.822621L20.5171 0.75H20.414H20.25H20H19.75H4.25H4H3.75V0.759622ZM19.4804 3.25L24.75 8.51955V27.75V28C24.75 28.1989 24.671 28.3897 24.5303 28.5303C24.3897 28.671 24.1989 28.75 24 28.75H23.75H4.25H4C3.80109 28.75 3.61032 28.671 3.46967 28.5303C3.32902 28.3897 3.25 28.1989 3.25 28V27.75V4.25V4C3.25 3.80109 3.32902 3.61032 3.46967 3.46967C3.61032 3.32902 3.80109 3.25 4 3.25H4.25H19.4804Z" fill="#BB00FD" stroke="#BB00FD" stroke-width="0.5"/>
</svg>
