<svg width="20" height="20" viewBox="0 0 20 20" fill="none" xmlns="http://www.w3.org/2000/svg">
<path d="M0 10L4 14L4 11H12L12 9H4V6M2 4C3.25929 2.32094 5.01497 1.08067 7.01832 0.454865C9.02168 -0.170937 11.1712 -0.150539 13.1623 0.513166C15.1534 1.17687 16.8852 2.45024 18.1124 4.1529C19.3396 5.85555 20 7.90117 20 10C20 12.0988 19.3396 14.1444 18.1124 15.8471C16.8852 17.5498 15.1534 18.8231 13.1623 19.4868C11.1712 20.1505 9.02168 20.1709 7.01832 19.5451C5.01497 18.9193 3.25929 17.6791 2 16H4.73C5.88468 17.0183 7.30869 17.6819 8.83113 17.9109C10.3536 18.14 11.9098 17.9249 13.313 17.2915C14.7162 16.6581 15.9069 15.6332 16.7421 14.3398C17.5773 13.0465 18.0215 11.5396 18.0215 10C18.0215 8.46042 17.5773 6.95354 16.7421 5.66018C15.9069 4.36683 14.7162 3.34194 13.313 2.7085C11.9098 2.07506 10.3536 1.85997 8.83113 2.08906C7.30869 2.31814 5.88468 2.98166 4.73 4H2Z" fill="white"/>
</svg>
