<svg width="16" height="16" viewBox="0 0 16 16" fill="none" xmlns="http://www.w3.org/2000/svg">
<path d="M8.08 13.5586L8 13.6458L7.912 13.5586C4.112 9.80054 1.6 7.31553 1.6 4.79564C1.6 3.05177 2.8 1.74387 4.4 1.74387C5.632 1.74387 6.832 2.6158 7.256 3.80164H8.744C9.168 2.6158 10.368 1.74387 11.6 1.74387C13.2 1.74387 14.4 3.05177 14.4 4.79564C14.4 7.31553 11.888 9.80054 8.08 13.5586ZM11.6 0C10.208 0 8.872 0.706267 8 1.81362C7.128 0.706267 5.792 0 4.4 0C1.936 0 0 2.10136 0 4.79564C0 8.08283 2.72 10.7771 6.84 14.849L8 16L9.16 14.849C13.28 10.7771 16 8.08283 16 4.79564C16 2.10136 14.064 0 11.6 0Z" fill="#3164e4"/>
</svg>
