<svg width="25" height="24" viewBox="0 0 25 24" fill="none" xmlns="http://www.w3.org/2000/svg">
<path d="M14.331 8.89977L10.502 12.6538C10.138 13.0138 9.93802 13.5058 9.94602 14.0228C9.95693 14.5458 10.1723 15.0437 10.546 15.4098C10.921 15.7808 11.426 15.9938 11.949 16.0028C12.205 16.0082 12.4596 15.9623 12.6976 15.8678C12.9356 15.7734 13.1523 15.6322 13.335 15.4528L17.163 11.6988C17.5242 11.3415 17.8089 10.9146 18.0001 10.4439C18.1913 9.97326 18.2848 9.46867 18.275 8.96077C18.254 7.91468 17.8239 6.91848 17.077 6.18577C16.3281 5.44462 15.3225 5.02027 14.269 5.00077C13.7575 4.99056 13.2491 5.0824 12.7735 5.27093C12.2979 5.45945 11.8646 5.74088 11.499 6.09877L7.66802 9.85377C7.12672 10.3899 6.69988 11.0304 6.41334 11.7363C6.1268 12.4423 5.98653 13.199 6.00102 13.9608C6.03322 15.5295 6.67866 17.0232 7.79902 18.1218C8.92188 19.2332 10.4294 19.8699 12.009 19.8998C12.7766 19.9158 13.5396 19.7784 14.2534 19.4958C14.9672 19.2131 15.6175 18.7909 16.166 18.2538L19.995 14.4978" stroke="black" stroke-opacity="0.25" stroke-width="2" stroke-linecap="round" stroke-linejoin="round"/>
</svg>
