<svg width="25" height="27" viewBox="0 0 25 27" fill="none" xmlns="http://www.w3.org/2000/svg">
<path d="M23.6968 7.64044V19.3596C23.6969 19.4946 23.6608 19.6273 23.5922 19.7437C23.5237 19.8601 23.4253 19.956 23.3072 20.0215L12.7153 25.9051C12.6031 25.9673 12.4768 26 12.3484 26C12.22 26 12.0937 25.9673 11.9815 25.9051L1.38963 20.0215C1.2715 19.956 1.17307 19.8601 1.10455 19.7437C1.03603 19.6273 0.999934 19.4946 1 19.3596V7.64044C1.00016 7.50558 1.03637 7.37321 1.10487 7.25704C1.17338 7.14087 1.27169 7.04512 1.38963 6.97971L11.9815 1.09494C12.0937 1.03267 12.22 1 12.3484 1C12.4768 1 12.6031 1.03267 12.7153 1.09494L23.3072 6.97971C23.4251 7.04512 23.5234 7.14087 23.5919 7.25704C23.6604 7.37321 23.6966 7.50558 23.6968 7.64044V7.64044Z" stroke="white" stroke-width="2" stroke-linecap="round" stroke-linejoin="round"/>
<path d="M1.66541 7.56595L11.9798 13.2956C12.0923 13.3581 12.2188 13.3909 12.3474 13.3909C12.476 13.3909 12.6025 13.3581 12.715 13.2956L23.066 7.54578M12.348 24.8483V13.4999" stroke="white" stroke-width="2" stroke-linecap="round" stroke-linejoin="round"/>
</svg>
