<svg width="27" height="30" viewBox="0 0 27 30" fill="none" xmlns="http://www.w3.org/2000/svg">
<path d="M12.8695 24.5455H12.3242L11.7788 21C10.1427 20.7273 8.77929 19.7727 7.68857 18.5455L4.41639 19.9091L3.32566 18.1364L6.18882 15.9545C5.64346 14.3182 5.64346 12.6818 6.18882 11.0455L3.32566 9.13636L4.41639 7.36364L7.68857 8.72727C8.77929 7.5 10.1427 6.68182 11.7788 6.27273L12.1878 2.72727H14.2329L14.7783 6.27273C16.4144 6.54545 17.9141 7.5 18.8685 8.72727L22.1407 7.36364L23.2314 9.13636L20.3683 11.1818C20.6409 12 20.7773 12.8182 20.7773 13.6364H21.459C22.1407 13.6364 22.8224 13.7727 23.5041 13.9091V13.6364L23.3678 12.2727L26.2309 10.0909C26.5036 9.81818 26.5036 9.54545 26.3673 9.27273L23.6404 4.5C23.5041 4.09091 23.2314 4.09091 22.8224 4.09091L19.4139 5.45455C18.7322 4.90909 17.9141 4.5 17.0961 4.09091L16.5507 0.409091C16.6871 0.272727 16.278 0 16.0054 0H10.5517C10.279 0 9.87002 0.272727 9.87002 0.545455L9.32466 4.22727C8.50661 4.5 7.82491 5.04545 7.00687 5.45455L3.73469 4.09091C3.32567 4.09091 3.05298 4.09091 2.7803 4.5L0.0534871 9.27273C-0.0828536 9.54545 0.0534872 9.81818 0.326169 10.0909L3.18932 12.2727L3.05298 13.6364L3.18932 15L0.326169 17.3182C0.0534872 17.5909 0.0534873 17.8636 0.189828 18.1364L2.91664 22.9091C3.05298 23.1818 3.32567 23.1818 3.73469 23.1818L7.14321 21.8182C7.82491 22.3636 8.64295 22.7727 9.461 23.1818L10.0064 26.8636C10.0064 27.1364 10.279 27.4091 10.6881 27.4091H14.0966C13.4149 26.4545 13.1422 25.5 12.8695 24.5455ZM18.7322 14.0455V13.6364C18.7322 10.6364 16.278 8.18182 13.2785 8.18182C10.279 8.18182 7.82491 10.6364 7.82491 13.6364C7.82491 16.6364 10.279 19.0909 13.2785 19.0909C14.2329 16.7727 16.278 14.8636 18.7322 14.0455ZM10.5517 13.6364C10.5517 12.1364 11.7788 10.9091 13.2785 10.9091C14.7783 10.9091 16.0054 12.1364 16.0054 13.6364C16.0054 15.1364 14.7783 16.3636 13.2785 16.3636C11.7788 16.3636 10.5517 15.1364 10.5517 13.6364ZM21.459 17.0455V15L18.4595 18L21.459 21V19.0909C23.3678 19.0909 24.8675 20.5909 24.8675 22.5C24.8675 23.0455 24.7312 23.5909 24.4585 24L25.9582 25.5C27.5943 23.0455 26.9126 19.6364 24.4585 18C23.6404 17.3182 22.5497 17.0455 21.459 17.0455ZM21.459 25.9091C19.5502 25.9091 18.0505 24.4091 18.0505 22.5C18.0505 21.9545 18.1868 21.4091 18.4595 21L16.9597 19.5C15.3237 21.9545 16.0054 25.3636 18.4595 27C19.4139 27.5455 20.3683 27.9545 21.459 27.9545V30L24.4585 27L21.459 23.8636V25.9091Z" fill="#008DBA"/>
</svg>
