<svg width="15" height="10" viewBox="0 0 15 10" fill="none" xmlns="http://www.w3.org/2000/svg">
<path d="M14.2121 1.69514C14.3944 1.50649 14.4952 1.25382 14.4929 0.991559C14.4906 0.729297 14.3854 0.478421 14.2 0.292966C14.0145 0.107512 13.7636 0.0023168 13.5014 3.78121e-05C13.2391 -0.00224118 12.9864 0.0985784 12.7978 0.280782L5.49596 7.58261L2.19514 4.28178C2.00649 4.09958 1.75382 3.99876 1.49156 4.00104C1.2293 4.00332 0.978421 4.10851 0.792966 4.29397C0.607512 4.47942 0.502317 4.7303 0.500038 4.99256C0.497759 5.25482 0.598578 5.50749 0.780782 5.69614L4.78179 9.69714C4.96936 9.88466 5.22373 9.99 5.48896 9.99C5.75419 9.99 6.00856 9.88466 6.19614 9.69714L14.1981 1.69514H14.2121Z" fill="white"/>
</svg>
