<svg width="13" height="10" viewBox="0 0 13 10" fill="none" xmlns="http://www.w3.org/2000/svg">
<path d="M12.4123 0.869933C12.6798 1.55992 12.3054 2.03241 11.5811 2.49865C10.9967 2.87365 10.2523 3.28114 9.46359 3.97675C8.68985 4.65862 7.93549 5.48048 7.26488 6.28921C6.69112 6.98351 6.14487 7.7001 5.6274 8.4373C5.36866 8.80667 5.00679 9.35791 5.00679 9.35791C4.87693 9.55853 4.69809 9.72274 4.48715 9.83504C4.27621 9.94735 4.04012 10.004 3.80118 9.99978C3.56238 9.99837 3.32791 9.93589 3.12006 9.81829C2.91221 9.7007 2.7379 9.53188 2.61371 9.32791C1.98934 8.27981 1.5081 7.86544 1.28685 7.71731C0.694988 7.31857 0 7.26107 0 6.33359C0 5.59673 0.621864 4.99986 1.38873 4.99986C1.93059 5.01986 2.43371 5.23298 2.87995 5.53298C3.16495 5.72422 3.46682 5.97797 3.78056 6.31109C4.20103 5.73731 4.63829 5.17604 5.09179 4.62799C5.8149 3.75613 6.66864 2.82052 7.58425 2.01304C8.48423 1.2193 9.52484 0.476189 10.6279 0.0836961C11.3467 -0.17255 12.1454 0.17932 12.4123 0.869933Z" fill="white"/>
</svg>
